# xmcd
#
# Track frame offsets:
#      182
#      17792
#      35010
#      52177
#      68297
#      80807
#      96820
#      109030
#      124790
#      140660
#      155702
#      171317
# 
# Disc length: 2471 seconds
#
# Revision: 2
# Processed by: cddbd v1.5.1PL0 Copyright (c) Steve Scherf et al.
#
# Submitted via: FreeRIP 1.20
#
DISCID=a809a50c
DTITLE=various- Jack Dorsey - 101 Strings Orchestra
DYEAR=1982
DGENRE=Instrumental Pop
TTITLE0=01- When I Fall In Love
TTITLE1=02- Over The Rainbow
TTITLE2=03- Charmaine
TTITLE3=04- Moonlight In Vermont
TTITLE4=05- Tenderly
TTITLE5=06- Dorinda
TTITLE6=07- La Vie En Rose
TTITLE7=08- Second Time Around
TTITLE8=09- Stormy Weather
TTITLE9=10- Memory
TTITLE10=11- Cameo
TTITLE11=12- Dear Starling
EXTD=Vogue- VG651
EXTT0=
EXTT1=
EXTT2=
EXTT3=
EXTT4=
EXTT5=
EXTT6=
EXTT7=
EXTT8=
EXTT9=
EXTT10=
EXTT11=
PLAYORDER=
